<?xml version="1.0" encoding="utf-8"?>
<!-- Generator: Adobe Illustrator 18.1.1, SVG Export Plug-In . SVG Version: 6.00 Build 0)  -->
<svg version="1.1" id="triple3dLogo" xmlns="http://www.w3.org/2000/svg" xmlns:xlink="http://www.w3.org/1999/xlink" x="0px" y="0px"
	 viewBox="0 0 400 122.6" enable-background="new 0 0 400 122.6" xml:space="preserve" width="1000px" height="310px">
<polygon fill="#1D7EBA" points="77.8,6.5 58.7,39.6 39.6,6.5 "/>
<polygon fill="#1D7EBA" points="116,6.5 96.9,39.6 77.8,6.5 "/>
<polygon fill="#02599F" points="77.8,72.7 58.7,105.8 39.6,72.7 "/>
<polygon fill="#1D7EBA" points="39.6,72.7 58.7,39.6 77.8,72.7 "/>
<polygon fill="#0F385C" points="58.7,105.8 77.8,72.7 96.9,105.8 "/>
<polygon fill="#02599F" points="58.7,39.6 77.8,6.5 96.9,39.6 "/>
<polygon fill="#3699CB" points="20.5,39.6 39.6,6.5 58.7,39.6 "/>
<polygon fill="#3699CB" points="96.9,39.6 116,6.5 135.1,39.6 "/>
<polygon fill="#3699CB" points="96.9,39.6 77.8,72.7 58.7,39.6 "/>
<g>
	<path d="M125.2,105.8h-5.6V66.7h-14v-5.6h33.6v5.6h-14V105.8z"/>
	<path d="M160.6,77.3c-2.4,0-4.5,0.9-6.3,2.6c-1.8,1.7-2.6,3.9-2.6,6.3v19.6h-5.6V72.2h5.6l0,3.9c2.4-2.9,5.4-4.4,8.9-4.4V77.3z"/>
	<path d="M167.7,61.1h5.6v5.6h-5.6V61.1z M167.7,72.2h5.6v33.6h-5.6V72.2z"/>
	<path d="M219.1,89c0,4.7-1.6,8.7-4.9,12.2c-3.3,3.4-7.2,5.1-11.8,5.1c-4.9,0-9-1.8-12.3-5.5v16.2h-5.6V72.2h5.6l0,5
		c3.3-3.7,7.4-5.6,12.3-5.6c4.7,0,8.6,1.7,11.9,5.1C217.5,80.3,219.1,84.3,219.1,89z M213.5,89c0-3.2-1.2-6-3.5-8.3
		c-2.3-2.3-5-3.5-8.2-3.5c-3.2,0-6,1.2-8.3,3.5c-2.3,2.3-3.5,5-3.5,8.3c0,3.2,1.2,6,3.5,8.3c2.3,2.3,5.1,3.4,8.3,3.4
		c3.2,0,6-1.1,8.2-3.4C212.3,95,213.5,92.2,213.5,89z"/>
	<path d="M227.5,61.1h5.6v44.7h-5.6V61.1z"/>
	<path d="M276.1,89c0,0.9-0.1,1.9-0.2,2.8h-28.5c0.6,2.6,2,4.8,4.2,6.5c2.1,1.7,4.5,2.5,7.2,2.5c4.2,0,7.5-1.8,9.8-5.3l4.7,3.1
		c-1.6,2.4-3.7,4.3-6.3,5.7c-2.6,1.4-5.3,2-8.2,2c-4.8,0-8.9-1.7-12.3-5c-3.4-3.4-5.1-7.5-5.1-12.2c0-4.8,1.7-8.8,5.1-12.2
		c3.4-3.4,7.5-5.1,12.3-5.1c4.8,0,8.9,1.7,12.3,5.1C274.4,80.2,276.1,84.2,276.1,89z M270.2,86.2c-0.6-2.6-2-4.7-4.2-6.4
		c-2.1-1.7-4.6-2.5-7.2-2.5c-2.6,0-5,0.8-7.2,2.5c-2.2,1.7-3.6,3.8-4.2,6.4H270.2z"/>
	<path d="M330.2,92.3c0,3.9-1.4,7.2-4.1,9.9c-2.7,2.7-6,4-9.9,4c-3.2,0-6-0.9-8.5-2.9c-2.5-1.9-4.2-4.4-5-7.5l5.4-1.4
		c0.5,1.8,1.5,3.3,3,4.5c1.6,1.2,3.3,1.7,5.1,1.7c2.3,0,4.3-0.8,5.9-2.5c1.6-1.6,2.5-3.6,2.5-5.9c0-2.3-0.8-4.3-2.5-5.9
		c-1.6-1.7-3.6-2.5-5.9-2.5h-2.8v-5.6h2.8c1.7,0,3.1-0.6,4.3-1.8c1.2-1.2,1.8-2.7,1.8-4.3c0-1.7-0.6-3.1-1.8-4.3
		c-1.2-1.2-2.7-1.8-4.3-1.8c-1.4,0-2.7,0.4-3.7,1.3c-1.1,0.9-1.8,2-2.2,3.3l-5.4-1.4c0.7-2.6,2-4.7,4.2-6.3c2.1-1.6,4.5-2.4,7.2-2.4
		c3.2,0,6,1.1,8.3,3.4c2.3,2.3,3.5,5.1,3.5,8.3c0,3.9-1.6,6.8-4.8,8.8C327.8,83.3,330.2,87.1,330.2,92.3z"/>
	<path d="M380.5,83.4c0,6.2-2.2,11.4-6.6,15.8c-4.4,4.4-9.6,6.6-15.8,6.6h-16.8V61.1h16.8c6.1,0,11.4,2.2,15.8,6.6
		C378.3,72,380.5,77.3,380.5,83.4z M374.9,83.4c0-4.6-1.6-8.5-4.9-11.8c-3.3-3.3-7.2-4.9-11.8-4.9H347v33.5h11.2
		c4.6,0,8.5-1.6,11.8-4.9C373.3,91.9,374.9,88,374.9,83.4z"/>
</g>
</svg>
